<svg width="1440" height="639" viewBox="0 0 1440 639" fill="none" xmlns="http://www.w3.org/2000/svg">
<path d="M1182.86 638.287C1211.26 638.287 1234.29 615.261 1234.29 586.858C1234.29 615.261 1257.31 638.287 1285.71 638.287C1314.12 638.287 1337.14 615.261 1337.14 586.858L1337.15 587.523C1337.5 615.62 1360.39 638.287 1388.57 638.287C1416.97 638.287 1440 615.261 1440 586.858V-138.616H0V586.858C6.18016e-05 615.261 23.0255 638.287 51.4287 638.287C79.8318 638.287 102.857 615.261 102.857 586.858L102.861 587.523C103.217 615.62 126.105 638.287 154.286 638.287C182.689 638.287 205.714 615.261 205.714 586.858L205.719 587.523C206.075 615.62 228.962 638.287 257.143 638.287C285.546 638.287 308.571 615.261 308.571 586.858L308.575 587.523C308.931 615.62 331.819 638.287 360 638.287C388.403 638.287 411.429 615.261 411.429 586.858L411.433 587.523C411.789 615.62 434.676 638.287 462.857 638.287C491.26 638.287 514.286 615.261 514.286 586.858L514.29 587.523C514.646 615.62 537.533 638.287 565.714 638.287C594.117 638.287 617.143 615.261 617.143 586.858L617.146 587.523C617.503 615.62 640.39 638.287 668.571 638.287C696.974 638.287 720 615.261 720 586.858L720.004 587.523C720.36 615.62 743.248 638.287 771.429 638.287C799.832 638.287 822.857 615.261 822.857 586.858L822.861 587.523C823.217 615.62 846.104 638.287 874.285 638.287C902.688 638.287 925.714 615.261 925.714 586.858L925.719 587.523C926.075 615.62 948.961 638.287 977.143 638.287C1005.55 638.287 1028.57 615.261 1028.57 586.858L1028.58 587.523C1028.93 615.62 1051.82 638.287 1080 638.287C1108.4 638.287 1131.43 615.261 1131.43 586.858L1131.43 587.523C1131.79 615.62 1154.68 638.287 1182.86 638.287Z" fill="#D2E4FF"/>
</svg>
